<svg width="922" height="922" viewBox="0 0 922 922" fill="none" xmlns="http://www.w3.org/2000/svg">
<g clip-path="url(#clip0_4679_95)">
<path d="M0 72.838C0 47.8892 0 35.4146 4.70094 25.8188C9.20189 16.6312 16.6312 9.20189 25.8188 4.70094C35.4146 0 47.8892 0 72.838 0H849.162C874.112 0 886.586 0 896.18 4.70094C905.367 9.20189 912.798 16.6312 917.297 25.8188C922 35.4146 922 47.8892 922 72.838V849.162C922 874.112 922 886.586 917.297 896.18C912.798 905.367 905.367 912.798 896.18 917.297C886.586 922 874.112 922 849.162 922H72.838C47.8892 922 35.4146 922 25.8188 917.297C16.6312 912.798 9.20189 905.367 4.70094 896.18C0 886.586 0 874.112 0 849.162V72.838Z" fill="white"/>
</g>
<g clip-path="url(#clip1_4679_95)">
<path d="M184 227.703C184 212.734 184 205.249 186.821 199.491C189.521 193.979 193.979 189.521 199.491 186.821C205.249 184 212.734 184 227.703 184H693.497C708.467 184 715.952 184 721.708 186.821C727.22 189.521 731.679 193.979 734.378 199.491C737.2 205.249 737.2 212.734 737.2 227.703V693.497C737.2 708.467 737.2 715.952 734.378 721.708C731.679 727.22 727.22 731.679 721.708 734.378C715.952 737.2 708.467 737.2 693.497 737.2H227.703C212.734 737.2 205.249 737.2 199.491 734.378C193.979 731.679 189.521 727.22 186.821 721.708C184 715.952 184 708.467 184 693.497V227.703Z" fill="#0101FF"/>
</g>
<defs>
<clipPath id="clip0_4679_95">
<rect width="922" height="922" fill="white"/>
</clipPath>
<clipPath id="clip1_4679_95">
<rect width="553.2" height="553.2" fill="white" transform="translate(184 184)"/>
</clipPath>
</defs>
</svg>
