<svg width="228" height="81" viewBox="0 0 228 81" fill="none" xmlns="http://www.w3.org/2000/svg">
<rect
        x="30.0502"
        y="5.54243"
        width="195.39"
        height="70.0684"
        rx="18.2255"
        fill="url(#paint0_linear_1572_152)"
        stroke="#FFA04C"
        strokeWidth="4.31728"
    />
<path
        d="M81.5542 49.8238C76.0233 71.2638 53.5428 84.2969 31.3861 78.9522C9.19705 73.6079 -4.29103 51.8866 1.24023 30.4775C6.77116 9.03748 29.2189 -3.99566 51.408 1.34903C73.5647 6.66216 87.0855 28.3834 81.5542 49.8238Z"
        fill="url(#paint1_linear_1572_152)"
    />
<path
        d="M61.1084 35.1651C61.9169 29.8526 57.745 26.9775 51.9883 25.0713L53.8641 17.8525L49.3363 16.7588L47.5253 23.79C46.3286 23.5088 45.0997 23.2275 43.8707 22.9775L45.6818 15.915L41.1541 14.8213L39.3107 22.0088C38.3081 21.79 37.3379 21.5713 36.4 21.3525V21.3213L30.1259 19.8213L28.9293 24.5088C28.9293 24.5088 32.2927 25.2588 32.228 25.29C34.0715 25.7275 34.3949 26.915 34.3302 27.8526L32.1957 36.0713C32.3251 36.1026 32.4868 36.1338 32.6808 36.2276C32.5191 36.1963 32.3574 36.1651 32.1957 36.1026L29.2203 47.6026C28.9939 48.1338 28.4118 48.9463 27.1505 48.6338C27.1829 48.6963 23.8518 47.8526 23.8518 47.8526L21.5879 52.8838L27.5063 54.3213C28.6059 54.6026 29.6731 54.8526 30.7404 55.1338L28.8646 62.4151L33.3923 63.5088L35.2681 56.2901C36.497 56.6026 37.726 56.9151 38.8902 57.1963L37.0468 64.3838L41.5745 65.4776L43.4503 58.1963C51.2121 59.6026 57.0335 59.0401 59.459 52.2588C61.4318 46.8213 59.362 43.6651 55.2871 41.6026C58.2948 40.9463 60.5263 39.0401 61.1084 35.1651ZM50.727 49.2276C49.3363 54.6651 39.8281 51.7276 36.7557 50.9776L39.246 41.3213C42.3184 42.0713 52.2147 43.5401 50.727 49.2276ZM52.15 35.0713C50.8564 40.0401 42.9652 37.5088 40.4103 36.8838L42.6741 28.1338C45.2291 28.7588 53.476 29.9151 52.15 35.0713Z"
        fill="white"
    />
<path
        d="M103.914 52L103.42 51.506V25.856L103.914 25.4H123.636L127.436 29.2V34.862L124.13 38.776V38.966L127.436 42.842V48.2L123.636 52H103.914ZM108.36 36.99H120.862L122.496 34.9V31.518L120.786 29.808H108.36V36.99ZM108.36 47.592H120.786L122.496 45.882V42.652L120.862 40.562H108.36V47.592ZM134.752 29.846L134.258 25.894L134.752 25.4H156.944L157.4 25.894L156.906 29.846L156.336 30.34H148.318V51.544L147.824 52.038H143.872L143.378 51.544V30.34H135.322L134.752 29.846ZM184.437 25.4L188.237 29.2V33.19L187.743 33.646H183.791L183.297 33.19V31.594L181.511 29.808H170.871L169.161 31.518V45.882L170.871 47.592H181.511L183.297 45.806V44.21L183.791 43.754H187.743L188.237 44.21V48.2L184.437 52H168.021L164.221 48.2V29.2L168.021 25.4H184.437Z"
        fill="white"
    />
<defs>
<linearGradient
            id="paint0_linear_1572_152"
            x1="127.745"
            y1="3.38379"
            x2="127.745"
            y2="77.7695"
            gradientUnits="userSpaceOnUse"
        >
<stop stopColor="#C16C21" />
<stop offset="1" stopColor="#C46816" />
</linearGradient>
<linearGradient
            id="paint1_linear_1572_152"
            x1="4137.39"
            y1="-1.76937"
            x2="4137.39"
            y2="7999.35"
            gradientUnits="userSpaceOnUse"
        >
<stop stopColor="#F9AA4B" />
<stop offset="1" stopColor="#F7931A" />
</linearGradient>
</defs>
</svg>
