<svg width="44" height="43" viewBox="0 0 44 43" fill="none" xmlns="http://www.w3.org/2000/svg">
<path d="M42.8811 26.8552C39.9848 38.0823 28.2129 44.9071 16.6104 42.1084C4.9911 39.3098 -2.07196 27.9354 0.824497 16.7245C3.72078 5.49736 15.4756 -1.32747 27.095 1.47129C38.6974 4.25353 45.7775 15.6279 42.8811 26.8552Z" fill="#FF9F48"/>
<path d="M31.8666 19.2722C32.29 16.4903 30.1053 14.9848 27.0908 13.9866L28.0731 10.2065L25.7021 9.63372L24.7537 13.3157C24.1271 13.1684 23.4836 13.0211 22.84 12.8902L23.7884 9.19189L21.4175 8.61914L20.4521 12.3829C19.9272 12.2683 19.4191 12.1538 18.928 12.0392V12.0229L15.6425 11.2374L15.0159 13.692C15.0159 13.692 16.7772 14.0848 16.7433 14.1011C17.7086 14.3302 17.878 14.9521 17.8441 15.443L16.7264 19.7468C16.7941 19.7631 16.8788 19.7795 16.9804 19.8286C16.8957 19.8122 16.811 19.7959 16.7264 19.7631L15.1683 25.7851C15.0498 26.0633 14.7449 26.4888 14.0845 26.3251C14.1014 26.3579 12.357 25.916 12.357 25.916L11.1716 28.5507L14.2707 29.3034C14.8465 29.4507 15.4054 29.5816 15.9643 29.7289L14.982 33.5417L17.353 34.1145L18.3352 30.3344C18.9788 30.498 19.6223 30.6616 20.232 30.8089L19.2667 34.5727L21.6376 35.1454L22.6199 31.3326C26.6844 32.069 29.7327 31.7744 31.0029 28.2234C32.0359 25.376 30.9521 23.7232 28.8182 22.6432C30.3932 22.2996 31.5617 21.3014 31.8666 19.2722ZM26.4303 26.6361C25.7021 29.4834 20.7231 27.9452 19.1143 27.5525L20.4183 22.4959C22.0271 22.8887 27.2094 23.6578 26.4303 26.6361ZM27.1755 19.2231C26.4981 21.825 22.3658 20.4995 21.0279 20.1722L22.2134 15.5903C23.5513 15.9176 27.8698 16.523 27.1755 19.2231Z" fill="white"/>
</svg>
