<svg width="80" height="80" viewBox="0 0 80 80" fill="none" xmlns="http://www.w3.org/2000/svg">
<g clipPath="url(#clip0_2451_56)">
<path d="M77.83 40C77.83 60.8929 60.8929 77.83 40 77.83C19.1071 77.83 2.17 60.8929 2.17 40C2.17 19.1071 19.1071 2.17 40 2.17C60.8929 2.17 77.83 19.1071 77.83 40Z" fill="#0D56FC" stroke="#0D56FC" strokeWidth="4.34"/>
<path d="M73.75 40C73.75 58.6396 58.6396 73.75 40 73.75C21.3604 73.75 6.25 58.6396 6.25 40C6.25 21.3604 21.3604 6.25 40 6.25C58.6396 6.25 73.75 21.3604 73.75 40Z" fill="#0D56FC" stroke="white" strokeWidth="2.5"/>
<path d="M55.4529 34.8665C56.1767 30.1111 52.4422 27.5376 47.2893 25.8313L48.9683 19.3696L44.9155 18.3906L43.2943 24.6844C42.2232 24.4327 41.1231 24.1809 40.0231 23.9571L41.6442 17.6353L37.5914 16.6562L35.9413 23.09C35.0438 22.8942 34.1754 22.6983 33.3358 22.5025V22.4746L27.7197 21.1319L26.6486 25.3278C26.6486 25.3278 29.6593 25.9991 29.6014 26.0271C31.2515 26.4187 31.541 27.4817 31.4831 28.3209L29.5725 35.6777C29.6882 35.7056 29.833 35.7336 30.0067 35.8175C29.8619 35.7896 29.7172 35.7616 29.5725 35.7056L26.9091 45.9996C26.7065 46.4751 26.1854 47.2024 25.0564 46.9227C25.0853 46.9786 22.1036 46.2234 22.1036 46.2234L20.0771 50.727L25.3748 52.0137C26.3591 52.2655 27.3144 52.4892 28.2697 52.741L26.5907 59.2586L30.6436 60.2377L32.3226 53.776C33.4227 54.0557 34.5227 54.3354 35.5649 54.5872L33.9148 61.0209L37.9677 62L39.6467 55.4823C46.5945 56.7411 51.8054 56.2376 53.9765 50.1675C55.7424 45.3003 53.8897 42.475 50.2421 40.6288C52.9344 40.0414 54.9319 38.3351 55.4529 34.8665ZM46.1603 47.4542C44.9155 52.3214 36.4044 49.692 33.6543 49.0206L35.8834 40.3771C38.6335 41.0484 47.4919 42.3631 46.1603 47.4542ZM47.434 34.7825C46.2761 39.2302 39.2125 36.9644 36.9255 36.405L38.952 28.5726C41.2389 29.1321 48.621 30.1671 47.434 34.7825Z" fill="white"/>
</g>
<defs>
<clipPath id="clip0_2451_56">
<rect width="80" height="80" fill="white"/>
</clipPath>
</defs>
</svg>
