<svg width="3190" height="674" viewBox="0 0 3190 674" fill="none" xmlns="http://www.w3.org/2000/svg">
<path d="M362.16 0.509766L708.992 1.01953C764.583 1.01988 854.441 35.3784 899.254 66.0684C946.209 98.2244 976.303 137.703 991.728 187.377C998.545 209.335 999.065 270.158 992.616 291.358C977.097 342.374 948.466 381.798 903.368 414.254C880.445 430.753 849.028 447.137 821.983 456.698C811.159 460.525 802.305 464.051 802.305 464.535C802.324 465.034 855.943 511.837 921.476 568.554C987.014 625.277 1040.64 672.038 1040.65 672.471C1040.65 672.896 989.297 673.212 926.534 673.17L812.423 673.096L709.3 578.507L606.177 483.921H326.44L231.556 373.886H462.542C577.817 373.886 657.812 373.229 672.215 372.168C764.603 365.355 822.541 317.06 822.541 246.859C822.541 191.068 785.958 148.878 721.28 130.076C691.254 121.348 696.678 121.509 432.987 121.479L188.463 121.451V673.246H0.960938V58.8457C0.960938 26.3598 27.3199 0.0372334 59.8057 0.0830078L362.16 0.509766ZM1358.4 673.242H1171.9V0H1358.4V673.242ZM2215.9 134.838H1680.88V269.92H2094.76L1997.96 382.709H1680.88V673.242H1493.72V67.4189C1493.72 48.8748 1502.88 33.0017 1521.21 19.8008C1539.53 6.60022 1561.56 5.19057e-05 1587.3 0H2337.08L2215.9 134.838ZM3189.12 134.834H2869.77V673.242H2697.47V134.834H2363.92L2485.05 0H3189.12V134.834Z" fill="white"/>
</svg>
