<svg width="371" height="79" viewBox="0 0 371 79" fill="none" xmlns="http://www.w3.org/2000/svg">
<path d="M42.0322 0.0605469L82.3926 0.119141C88.8616 0.119248 99.3185 4.11815 104.533 7.68945C109.997 11.4314 113.499 16.0253 115.294 21.8057C116.087 24.3609 116.148 31.4393 115.397 33.9062C113.592 39.8427 110.26 44.4303 105.012 48.207C102.344 50.127 98.6882 52.0338 95.541 53.1465C94.2848 53.5906 93.2564 53.9996 93.251 54.0576C93.251 54.1137 99.4919 59.561 107.119 66.1621C114.733 72.7518 120.964 78.1865 120.986 78.2549C120.986 78.3044 115.011 78.3418 107.707 78.3369L94.4287 78.3281L82.4277 67.3213L70.4277 56.3135H37.875L26.834 43.5098H53.7139C67.1271 43.5098 76.4354 43.4331 78.1123 43.3096C88.8634 42.5168 95.6055 36.8967 95.6055 28.7275C95.6055 22.2352 91.3488 17.3256 83.8223 15.1377C80.3281 14.122 80.9595 14.1413 50.2744 14.1377L21.8193 14.1338V78.3457H0V6.84863C3.33008e-05 3.06836 3.06738 0.00544103 6.84766 0.0107422L42.0322 0.0605469ZM157.963 78.3447H136.26V0.000976562H157.963V78.3447ZM371 15.6914H333.839V78.3447H313.788V15.6914H274.974L289.069 0.000976562H371V15.6914ZM257.748 15.6904H195.489V31.4111H243.652L232.387 44.5361H195.489V78.3438H173.71V7.8457C173.71 5.68786 174.776 3.84081 176.908 2.30469C179.04 0.768529 181.604 3.1592e-06 184.6 0H271.851L257.748 15.6904Z" fill="white"/>
</svg>
